<svg width="25" height="26" viewBox="0 0 25 26" fill="none" xmlns="http://www.w3.org/2000/svg">
    <path d="M18.6371 3.07321C18.355 3.79968 17.8985 4.47299 17.3484 5.03298V5.03402C16.7933 5.59722 16.0519 6.09515 15.2271 6.42533C14.47 6.72834 13.6402 6.89153 12.8145 6.83751L12.5618 6.82097L12.5285 6.60982C12.4212 5.92889 12.5451 5.23955 12.806 4.60163C13.1096 3.85931 13.6014 3.18197 14.1291 2.66871L14.129 2.66865C14.6752 2.13184 15.4075 1.6648 16.1918 1.32641C16.9788 0.986854 17.8239 0.774512 18.5932 0.748225L18.884 0.738281L18.9158 0.982047C19.009 1.69496 18.8957 2.40709 18.6371 3.07321Z" fill="#424242"/>
    <path d="M23.9834 9.47772C23.7047 9.62245 21.0102 11.0214 21.0436 13.8414C21.0789 17.2409 24.5141 18.4194 24.7037 18.4844H24.7049L24.7131 18.4873L24.9827 18.5809L24.8904 18.8123C24.8849 18.8261 24.8911 18.8115 24.8831 18.833C24.7954 19.0686 24.2012 20.666 22.859 22.3118C22.2499 23.0584 21.6293 23.8038 20.8966 24.3788C20.138 24.9742 19.2716 25.376 18.2013 25.3927C17.1924 25.4086 16.532 25.1688 15.8454 24.9196C15.1908 24.6819 14.5099 24.4346 13.4445 24.4346C12.3253 24.4346 11.6099 24.6904 10.9208 24.9368C10.2721 25.1686 9.64475 25.3929 8.74095 25.4231H8.73972C7.69609 25.4557 6.79113 25.0288 5.98685 24.3965C5.21737 23.7916 4.54322 22.9995 3.92891 22.2539C2.54213 20.5737 1.3361 18.1289 0.963482 15.643C0.657001 13.5983 0.913187 11.5211 2.09132 9.80566C2.749 8.84583 3.66821 8.06254 4.7429 7.51597C5.81268 6.97189 7.03664 6.66228 8.31065 6.64625C9.42605 6.62927 10.4778 6.97947 11.398 7.28592C12.0493 7.50278 12.6296 7.69602 13.0646 7.69602C13.4489 7.69602 14.0154 7.5086 14.6758 7.29012C15.7911 6.92114 17.1557 6.46978 18.5985 6.59017C19.2044 6.61229 20.4665 6.73407 21.7566 7.32074C22.5784 7.69449 23.412 8.2556 24.0973 9.09714L24.278 9.31907L24.0081 9.46532C23.9936 9.47314 24.0077 9.46515 23.9834 9.47772Z" fill="#424242"/>
</svg>
