<svg width="40" height="30" viewBox="0 0 40 30" fill="none" xmlns="http://www.w3.org/2000/svg">
    <path d="M10.8333 15C11.4964 15 12.1323 14.8025 12.6011 14.4508C13.0699 14.0992 13.3333 13.6223 13.3333 13.125C13.3333 12.6277 13.0699 12.1508 12.6011 11.7992C12.1323 11.4475 11.4964 11.25 10.8333 11.25C10.1703 11.25 9.53441 11.4475 9.06557 11.7992C8.59673 12.1508 8.33333 12.6277 8.33333 13.125C8.33333 13.6223 8.59673 14.0992 9.06557 14.4508C9.53441 14.8025 10.1703 15 10.8333 15ZM15.8333 10C16.4964 10 17.1323 9.80246 17.6011 9.45083C18.0699 9.09919 18.3333 8.62228 18.3333 8.125C18.3333 7.62772 18.0699 7.15081 17.6011 6.79917C17.1323 6.44754 16.4964 6.25 15.8333 6.25C15.1703 6.25 14.5344 6.44754 14.0656 6.79917C13.5967 7.15081 13.3333 7.62772 13.3333 8.125C13.3333 8.62228 13.5967 9.09919 14.0656 9.45083C14.5344 9.80246 15.1703 10 15.8333 10ZM24.1667 10C24.8297 10 25.4656 9.80246 25.9344 9.45083C26.4033 9.09919 26.6667 8.62228 26.6667 8.125C26.6667 7.62772 26.4033 7.15081 25.9344 6.79917C25.4656 6.44754 24.8297 6.25 24.1667 6.25C23.5036 6.25 22.8677 6.44754 22.3989 6.79917C21.9301 7.15081 21.6667 7.62772 21.6667 8.125C21.6667 8.62228 21.9301 9.09919 22.3989 9.45083C22.8677 9.80246 23.5036 10 24.1667 10ZM29.1667 15C29.8297 15 30.4656 14.8025 30.9344 14.4508C31.4033 14.0992 31.6667 13.6223 31.6667 13.125C31.6667 12.6277 31.4033 12.1508 30.9344 11.7992C30.4656 11.4475 29.8297 11.25 29.1667 11.25C28.5036 11.25 27.8677 11.4475 27.3989 11.7992C26.9301 12.1508 26.6667 12.6277 26.6667 13.125C26.6667 13.6223 26.9301 14.0992 27.3989 14.4508C27.8677 14.8025 28.5036 15 29.1667 15ZM20 3.75C23.9782 3.75 27.7936 4.93526 30.6066 7.04505C33.4196 9.15483 35 12.0163 35 15C35 17.9837 33.4196 20.8452 30.6066 22.955C27.7936 25.0647 23.9782 26.25 20 26.25C19.337 26.25 18.7011 26.0525 18.2322 25.7008C17.7634 25.3492 17.5 24.8723 17.5 24.375C17.5 23.8875 17.75 23.45 18.15 23.125C18.5333 22.7875 18.7833 22.35 18.7833 21.875C18.7833 21.3777 18.5199 20.9008 18.0511 20.5492C17.5823 20.1975 16.9464 20 16.2833 20H13.3333C11.1232 20 9.00358 19.3415 7.44078 18.1694C5.87797 16.9973 5 15.4076 5 13.75C5 8.225 11.7167 3.75 20 3.75Z" fill="#DB0165"/>
</svg>
