<svg width="26" height="21" viewBox="0 0 26 21" fill="none" xmlns="http://www.w3.org/2000/svg">
    <path d="M25.35 4.86328V3.28125C25.35 1.46906 24.1151 0 22.5917 0H2.88964C1.36627 0 0.131348 1.46906 0.131348 3.28125V4.86328C0.131348 4.94098 0.157295 5.0155 0.20348 5.07044C0.249666 5.12538 0.312307 5.15625 0.377624 5.15625H25.1037C25.169 5.15625 25.2317 5.12538 25.2779 5.07044C25.3241 5.0155 25.35 4.94098 25.35 4.86328ZM0.131348 7.32422V17.3438C0.131348 19.1559 1.36627 20.625 2.88964 20.625H22.5917C24.1151 20.625 25.35 19.1559 25.35 17.3438V7.32422C25.35 7.24652 25.3241 7.172 25.2779 7.11706C25.2317 7.06212 25.169 7.03125 25.1037 7.03125H0.377624C0.312307 7.03125 0.249666 7.06212 0.20348 7.11706C0.157295 7.172 0.131348 7.24652 0.131348 7.32422ZM6.43601 15C6.43601 15.5177 6.08315 15.9375 5.64793 15.9375H4.85985C4.42463 15.9375 4.07176 15.5177 4.07176 15V14.0625C4.07176 13.5448 4.42463 13.125 4.85985 13.125H5.64793C6.08315 13.125 6.43601 13.5448 6.43601 14.0625V15Z" fill="#530B6B"/>
</svg>
