<svg width="24" height="24" viewBox="0 0 24 24" fill="none" xmlns="http://www.w3.org/2000/svg">
    <path d="M5.56648 0.00302354C4.09188 0.00462656 2.67828 0.59173 1.63643 1.63526C0.594586 2.6788 0.00978176 4.09334 0.0105843 5.56792L1.55979e-06 13.2644C-0.00105099 14.6676 0.530626 16.0189 1.48758 17.0452C2.44454 18.0714 3.75541 18.6961 5.15527 18.793V23.6005C5.15549 23.6796 5.17911 23.7568 5.22315 23.8225C5.26719 23.8882 5.32967 23.9393 5.40274 23.9696C5.4758 23.9998 5.55617 24.0077 5.63374 23.9924C5.7113 23.977 5.78258 23.939 5.8386 23.8832L10.8775 18.8339H18.4441C19.1746 18.8335 19.8979 18.6891 20.5725 18.409C21.2472 18.1289 21.8601 17.7185 22.3761 17.2014C22.8921 16.6843 23.3011 16.0706 23.5797 15.3953C23.8583 14.72 24.0011 13.9965 24 13.2659V5.57094C24.0029 4.84081 23.8618 4.11727 23.5846 3.4418C23.3074 2.76633 22.8996 2.15221 22.3845 1.63466C21.8695 1.11712 21.2574 0.70631 20.5833 0.4258C19.9092 0.145289 19.1863 0.000590744 18.4562 0L5.56648 0.00302354ZM5.56648 0.801248H18.4562C19.0815 0.799831 19.701 0.922385 20.2787 1.16183C20.8564 1.40127 21.3809 1.75284 21.8219 2.19623C22.2629 2.63962 22.6117 3.16602 22.848 3.74501C23.0843 4.324 23.2035 4.94409 23.1987 5.56943V13.2644C23.2023 13.8907 23.0818 14.5114 22.8442 15.0908C22.6067 15.6702 22.2567 16.1969 21.8145 16.6403C21.3723 17.0838 20.8467 17.4352 20.2679 17.6745C19.6892 17.9137 19.0688 18.0359 18.4425 18.0341H10.7096C10.6035 18.0344 10.5018 18.0768 10.4269 18.152L5.9535 22.6345V18.4332C5.9531 18.3275 5.91092 18.2262 5.83616 18.1515C5.7614 18.0767 5.66011 18.0345 5.55438 18.0341C4.92816 18.0363 4.3077 17.9144 3.72887 17.6754C3.15005 17.4364 2.62432 17.0851 2.18207 16.6417C1.73982 16.1984 1.38982 15.6718 1.1523 15.0923C0.914776 14.5129 0.794437 13.8922 0.798236 13.2659L0.811842 5.57094C0.808851 4.94508 0.929691 4.32481 1.16741 3.74585C1.40512 3.16689 1.75501 2.64066 2.19694 2.19747C2.63887 1.75429 3.1641 1.4029 3.74239 1.16353C4.32068 0.924167 4.94061 0.800044 5.56648 0.801248ZM7.99898 8.21808C7.68111 8.21967 7.37671 8.34665 7.15194 8.57142C6.92717 8.79618 6.80019 9.10058 6.7986 9.41844C6.7986 10.0761 7.34134 10.6188 7.99898 10.6188C8.31685 10.6172 8.62124 10.4902 8.84601 10.2655C9.07079 10.0407 9.19776 9.73631 9.19935 9.41844C9.19776 9.10058 9.07079 8.79618 8.84601 8.57142C8.62124 8.34665 8.31685 8.21967 7.99898 8.21808ZM11.9992 8.21808C11.6814 8.21967 11.377 8.34665 11.1522 8.57142C10.9274 8.79618 10.8004 9.10058 10.7988 9.41844C10.7988 10.0761 11.3401 10.6188 11.9992 10.6188C12.3168 10.6168 12.6208 10.4897 12.8453 10.2649C13.0697 10.0402 13.1965 9.73605 13.1981 9.41844C13.1965 9.10084 13.0697 8.79667 12.8453 8.57195C12.6208 8.34722 12.3168 8.22007 11.9992 8.21808ZM15.9995 8.21808C15.6816 8.21967 15.3772 8.34665 15.1524 8.57142C14.9277 8.79618 14.8007 9.10058 14.7991 9.41844C14.7991 10.0761 15.3403 10.6188 15.9995 10.6188C16.3171 10.6168 16.6211 10.4897 16.8455 10.2649C17.07 10.0402 17.1967 9.73605 17.1983 9.41844C17.1967 9.10084 17.07 8.79667 16.8455 8.57195C16.6211 8.34722 16.3171 8.22007 15.9995 8.21808ZM7.99898 9.01933C8.05174 9.01831 8.10417 9.02792 8.15314 9.0476C8.20211 9.06728 8.24661 9.09661 8.284 9.13386C8.32139 9.1711 8.35089 9.2155 8.37075 9.26439C8.39062 9.31328 8.40043 9.36568 8.39961 9.41844C8.40043 9.47121 8.39062 9.5236 8.37075 9.5725C8.35089 9.62139 8.32139 9.66578 8.284 9.70303C8.24661 9.74027 8.20211 9.76961 8.15314 9.78929C8.10417 9.80896 8.05174 9.81858 7.99898 9.81756C7.94621 9.81858 7.89378 9.80896 7.84482 9.78929C7.79585 9.76961 7.75134 9.74027 7.71395 9.70303C7.67657 9.66578 7.64706 9.62139 7.6272 9.5725C7.60734 9.5236 7.59753 9.47121 7.59835 9.41844C7.59732 9.36555 7.60698 9.31299 7.62675 9.26392C7.64652 9.21485 7.67599 9.17028 7.7134 9.13287C7.75081 9.09546 7.79539 9.06599 7.84446 9.04622C7.89353 9.02645 7.94608 9.0183 7.99898 9.01933ZM11.9992 9.01933C12.0519 9.01851 12.1041 9.02828 12.1529 9.04805C12.2017 9.06782 12.246 9.09719 12.2833 9.13441C12.3205 9.17163 12.3499 9.21596 12.3696 9.26475C12.3894 9.31354 12.3992 9.36581 12.3983 9.41844C12.3992 9.47108 12.3894 9.52335 12.3696 9.57214C12.3499 9.62093 12.3205 9.66525 12.2833 9.70248C12.246 9.7397 12.2017 9.76907 12.1529 9.78884C12.1041 9.80861 12.0519 9.81837 11.9992 9.81756C11.9465 9.81858 11.894 9.80896 11.8451 9.78929C11.7961 9.76961 11.7516 9.74027 11.7142 9.70303C11.6768 9.66578 11.6473 9.62139 11.6274 9.5725C11.6076 9.5236 11.5978 9.47121 11.5986 9.41844C11.5976 9.36555 11.6072 9.31299 11.627 9.26392C11.6468 9.21485 11.6762 9.17028 11.7136 9.13287C11.7511 9.09546 11.7956 9.06599 11.8447 9.04622C11.8938 9.02645 11.9463 9.0183 11.9992 9.01933ZM15.9995 9.01933C16.0521 9.01851 16.1044 9.02828 16.1532 9.04805C16.202 9.06782 16.2463 9.09719 16.2835 9.13441C16.3207 9.17163 16.3501 9.21596 16.3699 9.26475C16.3896 9.31354 16.3994 9.36581 16.3986 9.41844C16.3994 9.47108 16.3896 9.52335 16.3699 9.57214C16.3501 9.62093 16.3207 9.66525 16.2835 9.70248C16.2463 9.7397 16.202 9.76907 16.1532 9.78884C16.1044 9.80861 16.0521 9.81837 15.9995 9.81756C15.9467 9.81858 15.8943 9.80896 15.8453 9.78929C15.7963 9.76961 15.7518 9.74027 15.7144 9.70303C15.6771 9.66578 15.6476 9.62139 15.6277 9.5725C15.6078 9.5236 15.598 9.47121 15.5988 9.41844C15.5978 9.36555 15.6075 9.31299 15.6272 9.26392C15.647 9.21485 15.6765 9.17028 15.7139 9.13287C15.7513 9.09546 15.7959 9.06599 15.8449 9.04622C15.894 9.02645 15.9466 9.0183 15.9995 9.01933Z" fill="#530B6B"/>
</svg>
