<svg width="40" height="30" viewBox="0 0 40 30" fill="none" xmlns="http://www.w3.org/2000/svg">
    <path d="M2.70734 2.03057C5.87734 -0.346922 10.8653 -0.663421 14.316 1.22257L15.1513 0.596076L16.0713 1.28557L16.6907 1.75007L17.4667 2.33257L16.652 2.94307C17.998 4.27857 18.51 5.95256 18.226 7.59206L18.6287 8.22556L20.3473 9.82005L37.2207 25.4655L37.776 25.882L36.91 26.5315L40 29.478L39.304 30L35.3733 27.6825L34.508 28.3315L33.9533 27.9155L13.0933 15.2605L10.968 13.9725L10.1213 13.6705C7.93601 13.8825 5.70468 13.499 3.92468 12.4905L3.10934 13.102L2.33268 12.5195L1.71268 12.0545L0.793342 11.365L1.62934 10.738C-0.884657 8.14956 -0.46199 4.40757 2.70734 2.03057ZM33.708 26.7605C33.7231 26.7721 33.7412 26.7812 33.7611 26.7875C33.781 26.7938 33.8024 26.797 33.824 26.797C33.8456 26.797 33.867 26.7938 33.8869 26.7875C33.9068 26.7812 33.9249 26.7721 33.94 26.7605L35.6813 25.455C35.6965 25.4436 35.7086 25.4301 35.7168 25.4152C35.725 25.4003 35.7292 25.3844 35.7292 25.3683C35.7292 25.3357 35.712 25.3045 35.6813 25.2815C35.6507 25.2585 35.6091 25.2456 35.5657 25.2456C35.5223 25.2456 35.4807 25.2585 35.45 25.2815L33.708 26.587C33.6774 26.6101 33.6603 26.6412 33.6603 26.6738C33.6603 26.7063 33.6774 26.7375 33.708 26.7605ZM31.8533 25.142C31.9629 25.2243 32.093 25.2895 32.2363 25.334C32.3795 25.3785 32.533 25.4014 32.688 25.4014C32.843 25.4014 32.9965 25.3785 33.1398 25.334C33.283 25.2895 33.4131 25.2243 33.5227 25.142C33.6726 25.0288 33.7784 24.887 33.8287 24.732L31.5473 24.731C31.5977 24.8863 31.7035 25.0284 31.8533 25.142ZM33.828 24.3015C33.778 24.1515 33.678 24.009 33.5227 23.8915C33.4131 23.8093 33.283 23.744 33.1398 23.6995C32.9965 23.655 32.843 23.6321 32.688 23.6321C32.533 23.6321 32.3795 23.655 32.2363 23.6995C32.093 23.744 31.9629 23.8093 31.8533 23.8915C31.6973 24.009 31.5973 24.152 31.5473 24.3025L33.828 24.3015ZM30.18 23.128C30.2232 23.1603 30.2744 23.1859 30.3307 23.2033C30.3871 23.2207 30.4474 23.2297 30.5084 23.2296C30.5693 23.2295 30.6297 23.2204 30.6859 23.2029C30.7422 23.1853 30.7933 23.1596 30.8363 23.1273C30.8794 23.0949 30.9135 23.0565 30.9367 23.0142C30.9599 22.972 30.9719 22.9267 30.9718 22.881C30.9717 22.8353 30.9596 22.79 30.9362 22.7478C30.9128 22.7056 30.8785 22.6673 30.8353 22.635C30.7482 22.5698 30.63 22.5333 30.507 22.5334C30.3839 22.5336 30.2659 22.5704 30.179 22.6358C30.0921 22.7011 30.0434 22.7897 30.0436 22.882C30.0438 22.9744 30.0928 23.0628 30.18 23.128ZM24.6653 20.238L26.984 18.4985L22.2373 14.939L19.918 16.6785L24.6653 20.238ZM19.026 15.1555C19.181 15.1555 19.3345 15.1326 19.4777 15.0881C19.6209 15.0436 19.751 14.9784 19.8606 14.8962C19.9702 14.8139 20.0571 14.7163 20.1164 14.6089C20.1756 14.5014 20.2061 14.3863 20.206 14.27C20.206 14.104 20.1413 13.9495 20.0347 13.817L18.4227 15.027C18.6041 15.1108 18.8129 15.1553 19.026 15.1555ZM18.0167 14.7225L19.6293 13.513C19.452 13.4335 19.248 13.385 19.0267 13.385C18.8717 13.385 18.7181 13.4078 18.5749 13.4523C18.4317 13.4967 18.3015 13.5619 18.1919 13.6441C18.0822 13.7263 17.9952 13.8238 17.9359 13.9313C17.8765 14.0387 17.846 14.1538 17.846 14.27C17.846 14.436 17.9107 14.59 18.0167 14.7225ZM13.046 14.601L19.468 9.78505L18.5767 8.95905L11.9453 13.934L13.046 14.601ZM9.25201 12.7425L16.9927 6.93756C17.0493 5.82056 16.6733 4.71207 15.8407 3.77607L5.03467 11.8805C6.28334 12.5055 7.76201 12.785 9.25201 12.7425ZM3.25934 11.824L15.764 2.44507L15.1447 1.98057L2.63934 11.3595L3.25934 11.824ZM2.56734 10.0341L13.378 1.92607C10.4493 0.436076 6.28934 0.733575 3.63334 2.72557C0.97801 4.71707 0.580677 7.83806 2.56734 10.0341ZM3.53334 17.883C3.96001 16.1315 6.15534 15.7955 6.15534 15.7955L10.2653 21.49C10.388 20.8305 11.0793 20.1345 12.1433 19.702C13.6707 19.0815 15.3887 19.243 15.9787 20.061C16.5693 20.8795 15.81 22.045 14.282 22.666C12.7533 23.2855 11.0367 23.125 10.4467 22.3065L7.16667 17.7625C6.81934 17.7585 6.30201 17.914 5.59134 18.5245C4.10268 19.8045 2.08134 19.949 2.08134 19.949C2.08134 19.949 3.16334 19.405 3.53334 17.883Z" fill="white"/>
    <path d="M32.6966 13.3999C30.16 13.5529 27.9866 12.5744 27.8413 11.2154L27.0366 3.6699C26.576 3.5104 25.76 3.4884 24.324 3.9924C21.3193 5.0439 18.4973 4.3419 18.4973 4.3419C18.4973 4.3419 20.378 4.0924 22.0746 2.2184C24.0286 0.0589101 27.236 0.583409 27.236 0.583409L28.2453 10.0414C28.93 9.21089 30.4053 8.58489 32.1733 8.47889C34.7093 8.32689 36.8826 9.30539 37.0273 10.6649C37.172 12.0234 35.2346 13.2484 32.6966 13.3999ZM24.6213 19.3359L25.778 18.4684L25.546 18.2944L24.3893 19.1619L24.6213 19.3359ZM24.1933 19.0134L25.3506 18.1454L25.1186 17.9714L23.962 18.8394L24.1933 19.0134ZM23.7646 18.6924L24.9226 17.8244L24.6906 17.6504L23.5326 18.5189L23.7646 18.6924ZM23.102 18.1964L23.3326 18.3704L24.4926 17.5029L24.2613 17.3294L23.102 18.1964Z" fill="white"/>
    <path d="M26.2666 18.4491L24.5979 19.7001L20.6346 16.7281L22.3033 15.4766L26.2666 18.4491ZM24.5979 19.5266L26.0339 18.4496L24.2839 17.1371L22.8486 18.2141L24.5979 19.5266Z" fill="white"/>
</svg>
