<svg width="40" height="30" viewBox="0 0 40 30" fill="none" xmlns="http://www.w3.org/2000/svg">
    <path d="M16.6667 4.375C16.6667 5.4125 17.7833 6.25 19.1667 6.25C20.55 6.25 21.6667 5.4125 21.6667 4.375C21.6667 3.3375 20.55 2.5 19.1667 2.5C17.7833 2.5 16.6667 3.3375 16.6667 4.375ZM25.8333 6.25C27.2167 6.25 28.3333 7.0875 28.3333 8.125C28.3333 9.1625 27.2167 10 25.8333 10C24.45 10 23.3333 9.1625 23.3333 8.125C23.3333 7.0875 24.45 6.25 25.8333 6.25ZM16.6667 15L17.9667 12.1875H13.0333L9.43333 10.8375C8.81667 10.625 8.56667 10.05 8.88333 9.5875C8.95385 9.47637 9.05334 9.37697 9.17592 9.29516C9.29851 9.21335 9.44171 9.15079 9.59706 9.11117C9.75242 9.07156 9.91679 9.05569 10.0805 9.0645C10.2441 9.07332 10.4038 9.10664 10.55 9.1625L11.9167 9.675L12.7333 8.625C13.2167 7.8125 14.4 7.35 15.5667 7.55L19.6833 8.2125C20.8333 8.4 21.6667 9.1875 21.6667 10.0875V10.9625L25.7167 12.9875H25.7C25.8333 13.075 26.0167 13.1875 26.1167 13.3375L27.6 15.55L30.5667 16.6625C31.1833 16.875 31.4333 17.4625 31.1167 17.925C30.9658 18.1467 30.704 18.3146 30.3886 18.3919C30.0731 18.4692 29.7296 18.4496 29.4333 18.3375L25.7333 16.95L24 14.375L21.6667 16.25C23.3333 20 35 25 35 25C35 25 28.3333 27.5 20 27.5C11.6667 27.5 5 25 5 25C5 25 13.3333 20 16.6667 15ZM11.9167 13.8625L12.45 14.0625H14.45L14.35 14.2625C13.4833 15.55 12.2167 16.875 10.8333 18.05L11.7167 13.7875L11.9167 13.8625Z" fill="white"/>
</svg>
