<svg width="40" height="30" viewBox="0 0 40 30" fill="none" xmlns="http://www.w3.org/2000/svg">
    <path d="M0.0214996 20.7474C0.12114 18.1303 0.519714 15.2288 1.11757 12.498C1.71544 9.88096 2.46276 7.4346 3.35955 5.55716C6.84707 -1.44058 10.6335 -0.359626 15.1673 1.00579C16.6121 1.40403 18.1566 1.85917 19.7509 2.02984H20.2491C21.8434 1.85917 23.3879 1.40403 24.8327 1.00579C29.3665 -0.302734 33.1529 -1.44058 36.6404 5.61405C37.5372 7.49149 38.3344 9.93785 38.8824 12.5549C39.4803 15.2857 39.8789 18.1872 39.9785 20.8043C40.0781 23.7058 39.829 25.8108 39.281 27.29C38.733 28.6554 37.9358 29.5088 36.8896 29.8501C35.9429 30.1346 34.8469 30.0208 33.701 29.4519C31.7579 28.5416 29.5159 26.6073 27.3238 24.2747C25.7793 22.5679 22.8897 21.7145 20 21.7145C17.1103 21.7145 14.2207 22.5679 12.6762 24.2747C10.4841 26.6073 8.24208 28.5416 6.29903 29.4519C5.15313 29.9639 4.05705 30.1346 3.11044 29.8501C2.11401 29.5088 1.26704 28.7123 0.719002 27.2331C0.170963 25.8108 -0.0781441 23.7058 0.0214996 20.7474ZM2.41294 26.4366C2.71187 27.2331 3.11044 27.6882 3.60866 27.8589C4.1567 28.0296 4.8542 27.9158 5.65135 27.5744C7.39511 26.7779 9.4378 25.0143 11.4307 22.8524C13.3239 20.6905 16.6619 19.6095 20 19.6095C23.3381 19.6095 26.6761 20.6905 28.6192 22.7386C30.6618 24.9005 32.7045 26.721 34.3985 27.4606C35.1956 27.802 35.8931 27.9727 36.4412 27.7451C36.9394 27.5744 37.338 27.1193 37.6369 26.3228C38.0355 25.2418 38.2347 23.4782 38.1351 20.8612C38.0355 18.4148 37.6867 15.6271 37.0888 13.01C36.5408 10.5637 35.8433 8.28798 34.9963 6.58122C32.2561 0.948893 29.0675 1.85917 25.2811 2.99701C23.7366 3.45215 22.1423 3.90729 20.3986 4.07796H19.6512C17.8577 3.90729 16.2634 3.45215 14.7189 2.99701C10.9324 1.91606 7.74386 0.948893 5.00367 6.58122C4.1567 8.28798 3.45919 10.5068 2.91116 13.01C2.36312 15.6271 1.96454 18.3579 1.8649 20.8612C1.76525 23.4782 1.96454 25.2418 2.41294 26.4366Z" fill="white"/>
    <path d="M24.5839 9.65359C25.0821 9.14156 25.68 8.74332 26.3775 8.68643C26.4273 7.94683 26.7262 7.20723 27.1746 6.6952L27.2244 6.63831C27.7725 6.01249 28.47 5.67114 29.2671 5.67114C30.0643 5.67114 30.8116 6.06939 31.3098 6.63831C31.7582 7.15034 32.107 7.88994 32.1568 8.68643C32.8543 8.74332 33.4522 9.08467 33.9504 9.5967L34.0002 9.65359C34.5482 10.2794 34.8472 11.0759 34.8472 11.9862C34.8472 12.8964 34.4984 13.7498 34.0002 14.3188C33.502 14.8877 32.9041 15.229 32.1568 15.2859C32.107 16.0824 31.808 16.822 31.3098 17.334C30.7618 17.9599 30.0643 18.3012 29.2671 18.3012C28.47 18.3012 27.7227 17.903 27.2244 17.334C26.7761 16.7651 26.4273 16.0824 26.3775 15.2859C25.68 15.229 25.0323 14.8877 24.5839 14.3188C24.0359 13.6929 23.7369 12.8964 23.7369 11.9862C23.7369 11.0759 24.0857 10.2225 24.5839 9.65359ZM25.8294 12.8396C26.0287 13.0671 26.2778 13.1809 26.5768 13.1809H27.2743C27.7725 13.1809 28.2209 13.636 28.2209 14.2619V15.0015C28.2209 15.3428 28.3205 15.6273 28.5198 15.8548C28.7191 16.0824 28.9682 16.1962 29.2671 16.1962C29.5661 16.1962 29.8152 16.0824 30.0145 15.8548C30.2138 15.6273 30.3134 15.3428 30.3134 15.0015V14.205C30.3134 13.636 30.712 13.124 31.26 13.124H31.9575C32.2564 13.124 32.5055 13.0102 32.7048 12.7827C32.8543 12.612 33.0038 12.3275 33.0038 11.9862C33.0038 11.6448 32.9041 11.3604 32.7048 11.1328L32.655 11.0759C32.4557 10.9052 32.2066 10.7914 31.9575 10.7914H31.26C30.7618 10.7914 30.3134 10.3363 30.3134 9.71049V8.914C30.3134 8.57264 30.2138 8.28818 30.0145 8.06061C29.8152 7.83304 29.5661 7.71926 29.2671 7.71926C28.9682 7.71926 28.7191 7.83304 28.5198 8.06061L28.47 8.11751C28.3205 8.34507 28.2209 8.62953 28.2209 8.914V9.71049C28.2209 10.2794 27.8223 10.7914 27.2743 10.7914H26.5768C26.2778 10.7914 26.0287 10.9052 25.8294 11.1328C25.6302 11.3604 25.5305 11.6448 25.5305 11.9862C25.5305 12.3275 25.6302 12.612 25.8294 12.8396Z" fill="white"/>
    <path d="M11.3312 9.93753C10.3681 9.93753 9.58743 9.04603 9.58743 7.9463C9.58743 6.84658 10.3681 5.95508 11.3312 5.95508C12.2942 5.95508 13.075 6.84658 13.075 7.9463C13.075 9.04603 12.2942 9.93753 11.3312 9.93753Z" fill="white"/>
    <path d="M11.3312 18.0157C10.3681 18.0157 9.58743 17.1242 9.58743 16.0244C9.58743 14.9247 10.3681 14.0332 11.3312 14.0332C12.2942 14.0332 13.075 14.9247 13.075 16.0244C13.075 17.1242 12.2942 18.0157 11.3312 18.0157Z" fill="white"/>
    <path d="M14.8685 13.9761C13.9055 13.9761 13.1248 13.0846 13.1248 11.9849C13.1248 10.8852 13.9055 9.99365 14.8685 9.99365C15.8316 9.99365 16.6123 10.8852 16.6123 11.9849C16.6123 13.0846 15.8316 13.9761 14.8685 13.9761Z" fill="white"/>
    <path d="M7.79335 13.9761C6.8303 13.9761 6.04959 13.0846 6.04959 11.9849C6.04959 10.8852 6.8303 9.99365 7.79335 9.99365C8.7564 9.99365 9.53711 10.8852 9.53711 11.9849C9.53711 13.0846 8.7564 13.9761 7.79335 13.9761Z" fill="white"/>
</svg>
