<svg width="25" height="25" viewBox="0 0 25 25" fill="none" xmlns="http://www.w3.org/2000/svg">
    <path d="M23.2455 10.3125H13.399C12.9649 10.3125 12.6134 10.664 12.6134 11.0981V14.2459C12.6134 14.6801 12.9649 15.0315 13.399 15.0315H18.9451C18.3403 16.608 17.2032 17.926 15.7612 18.7634L18.1233 22.857C21.9119 20.6655 24.1552 16.8148 24.1552 12.5092C24.1552 11.8941 24.1086 11.4548 24.0208 10.9638C23.9484 10.5864 23.6228 10.3125 23.2455 10.3125Z" fill="#167EE6"/>
    <path d="M12.0862 19.756C9.37267 19.756 7.00539 18.2726 5.73389 16.0811L1.64026 18.438C3.72325 22.0509 7.62564 24.4802 12.0862 24.4802C14.2778 24.4802 16.3401 23.891 18.1233 22.8624V22.8572L15.7612 18.7636C14.6758 19.3942 13.4249 19.756 12.0862 19.756Z" fill="#12B347"/>
    <path d="M18.1181 22.8615V22.8563L15.756 18.7627C14.6757 19.3881 13.4249 19.7551 12.0862 19.7551V24.4793C14.2777 24.4793 16.34 23.8901 18.1181 22.8615Z" fill="#0F993E"/>
    <path d="M4.74142 12.4105C4.74142 11.0718 5.1084 9.82099 5.73382 8.74073L1.64019 6.38379C0.606446 8.15666 0.0172119 10.2138 0.0172119 12.4105C0.0172119 14.6072 0.606446 16.6644 1.64019 18.4372L5.73382 16.0803C5.10323 15 4.74142 13.7492 4.74142 12.4105Z" fill="#FFD500"/>
    <path d="M12.0862 5.06601C13.8539 5.06601 15.4821 5.69659 16.7484 6.74067C17.0637 6.99911 17.5186 6.97844 17.8029 6.69416L20.0306 4.46644C20.3562 4.14081 20.3304 3.60843 19.9841 3.30864C17.8597 1.45824 15.0944 0.341797 12.0862 0.341797C7.62564 0.341797 3.72325 2.7711 1.64026 6.38403L5.73389 8.74097C7.00539 6.54943 9.37267 5.06601 12.0862 5.06601Z" fill="#FF4B26"/>
    <path d="M16.7484 6.74067C17.0637 6.99911 17.5185 6.97844 17.8028 6.69416L20.0305 4.46644C20.3561 4.14081 20.3303 3.60843 19.984 3.30864C17.8596 1.45824 15.0944 0.341797 12.0862 0.341797V5.06601C13.8539 5.06601 15.482 5.69142 16.7484 6.74067Z" fill="#D93F21"/>
</svg>
