<svg width="24" height="25" viewBox="0 0 24 25" fill="none" xmlns="http://www.w3.org/2000/svg">
    <path d="M8.9999 18.8135C8.84077 18.8135 8.68816 18.8767 8.57564 18.9892C8.46312 19.1017 8.3999 19.2543 8.3999 19.4135C8.3999 19.5726 8.46312 19.7252 8.57564 19.8377C8.68816 19.9503 8.84077 20.0135 8.9999 20.0135H14.9999C15.159 20.0135 15.3116 19.9503 15.4242 19.8377C15.5367 19.7252 15.5999 19.5726 15.5999 19.4135C15.5999 19.2543 15.5367 19.1017 15.4242 18.9892C15.3116 18.8767 15.159 18.8135 14.9999 18.8135H8.9999Z" fill="#530B6B"/>
    <path fill-rule="evenodd" clip-rule="evenodd" d="M14.6028 0.903725C13.8615 0.318381 12.9445 0 12 0C11.0555 0 10.1385 0.318381 9.3972 0.903725L1.5972 7.06212C1.0993 7.45527 0.696933 7.95611 0.420306 8.52703C0.143679 9.09795 -1.88038e-05 9.72412 1.84557e-09 10.3585V20.0137C1.84557e-09 21.1276 0.442499 22.1959 1.23015 22.9836C2.0178 23.7712 3.08609 24.2137 4.2 24.2137H19.8C20.9139 24.2137 21.9822 23.7712 22.7698 22.9836C23.5575 22.1959 24 21.1276 24 20.0137V10.3585C24 9.72412 23.8563 9.09795 23.5797 8.52703C23.3031 7.95611 22.9007 7.45527 22.4028 7.06212L14.6028 0.903725ZM10.1412 1.84572C10.6706 1.42779 11.3255 1.20048 12 1.20048C12.6745 1.20048 13.3294 1.42779 13.8588 1.84572L21.6588 8.00412C22.0145 8.28489 22.3019 8.64259 22.4996 9.05036C22.6972 9.45813 22.7999 9.90538 22.8 10.3585V20.0137C22.8 20.8094 22.4839 21.5724 21.9213 22.135C21.3587 22.6977 20.5956 23.0137 19.8 23.0137H4.2C3.40435 23.0137 2.64129 22.6977 2.07868 22.135C1.51607 21.5724 1.2 20.8094 1.2 20.0137V10.3585C1.19991 9.90548 1.30243 9.45829 1.49987 9.05053C1.69731 8.64277 1.98454 8.28501 2.34 8.00412L10.1412 1.84572Z" fill="#530B6B"/>
</svg>
