<svg width="11" height="37" viewBox="0 0 11 37" fill="none" xmlns="http://www.w3.org/2000/svg">
    <path d="M1.38515 4.69566C1.36571 4.22446 1.43907 3.76498 1.60106 3.34347C1.76304 2.92196 2.01047 2.54666 2.32922 2.23901C2.64797 1.93136 3.03179 1.69738 3.45878 1.55043C3.88576 1.40348 4.34755 1.34644 4.81777 1.38256C5.28799 1.41868 5.75743 1.54726 6.19929 1.76095C6.64116 1.97464 7.04679 2.26926 7.39303 2.628C7.73928 2.98673 8.01935 3.40254 8.21725 3.8517C8.41516 4.30086 8.52703 4.77456 8.54647 5.24576L9.54575 29.4658L6.22416 35.47L2.38443 28.9157L1.38515 4.69566Z" fill="#530B6B" stroke="#530B6B" stroke-width="2" stroke-linecap="round" stroke-linejoin="round"/>
</svg>
