<svg width="40" height="30" viewBox="0 0 40 30" fill="none" xmlns="http://www.w3.org/2000/svg">
    <path d="M32.34 1.08638C33.2353 1.08169 34.1829 1.16138 35.1587 1.32017L29.8361 15.2989C30.9454 15 32.272 14.9356 33.5931 15.1114C36.6532 15.5157 38.8392 17.0918 38.4775 18.6153C38.115 20.1446 35.3415 21.0586 32.2798 20.6485C29.2267 20.2442 27.0392 18.6739 27.4064 17.1446C29.1329 12.4102 30.8751 7.5938 32.5931 2.8354C28.6329 3.04575 26.922 4.68579 25.5157 6.36919C25.5548 2.71704 28.4611 1.10688 32.34 1.08638ZM8.07043 2.88521C9.15637 2.89106 10.3204 3.03696 11.5157 3.30825L4.71106 16.9278C5.85168 16.6993 7.17981 16.711 8.48449 16.9688C11.4845 17.5547 13.5001 19.254 12.9767 20.754C12.4532 22.2598 9.58606 22.9981 6.58606 22.4063C3.57824 21.8204 1.57043 20.1211 2.09387 18.6211C4.32824 14.004 6.57043 9.3106 8.79699 4.66411C4.82824 4.63481 2.94543 6.16997 1.35949 7.76372C1.76574 4.33306 4.51574 2.8647 8.07043 2.88521ZM19.8126 9.58013L19.672 24.1172C20.6329 23.6133 21.8907 23.2793 23.2345 23.1856C26.3126 22.9629 28.9923 24.0352 29.1876 25.5879C29.3829 27.129 27.0236 28.5645 23.9454 28.7813C20.8439 29.0098 18.1876 27.9317 17.9845 26.3848C17.9689 21.4747 17.922 16.4883 17.8829 11.5547C14.1407 12.5508 13.0704 14.4727 12.3204 16.3829C10.7657 12.0411 14.5001 9.80278 19.8126 9.58013Z" fill="white"/>
</svg>
