<svg width="40" height="30" viewBox="0 0 40 30" fill="none" xmlns="http://www.w3.org/2000/svg">
    <mask id="path-1-inside-1_228_2033" fill="white">
        <path d="M0.606386 5.01152C0.797025 4.1709 1.84554 3.54358 3.0549 3.54358H3.07873C10.5971 3.59794 17.8473 5.47992 23.6082 8.85075C23.7869 7.37026 24.3886 5.92741 25.3835 4.60585C26.7418 2.80333 28.7852 1.29775 31.2814 0.252205C32.2882 -0.170194 33.5452 -0.0530939 34.3316 0.536592C38.0729 3.33447 40.0865 6.98968 39.9971 10.8289C39.9137 14.526 37.8882 18.0055 34.278 20.6779C34.6176 21.5896 34.8737 22.5181 35.0465 23.4633C35.118 23.8522 34.7307 24.2077 34.1707 24.2621C34.129 24.2662 34.0814 24.2662 34.0397 24.2662C33.5393 24.2662 33.1044 24.0069 33.0388 23.6473C32.8541 22.6645 32.5801 21.7026 32.2107 20.7699C32.169 20.7072 32.1452 20.6445 32.1333 20.5776C28.4814 11.5901 16.6737 5.06589 3.04299 4.96551H3.03703C2.82256 4.96551 2.62001 5.0868 2.58426 5.23317C1.83362 8.558 1.80979 11.9288 2.51277 15.2578C2.52469 15.2829 2.5366 15.308 2.54256 15.3331C3.94257 19.5529 7.85066 23.158 13.2779 25.2198C18.0618 27.0432 23.632 27.52 28.8567 26.5957C27.0933 25.7802 25.4014 24.8852 23.7869 23.9108C19.5273 21.3387 15.9469 18.2983 13.1469 14.8814C12.8669 14.5427 13.0337 14.1077 13.5222 13.9112C14.0047 13.7146 14.6243 13.8317 14.9043 14.1747C18.9911 19.1305 24.8354 23.2709 31.7818 26.19C31.8116 26.1984 31.8354 26.2109 31.8652 26.2235C34.0933 27.1561 36.4286 27.9591 38.8593 28.6282C39.3776 28.7704 39.6397 29.1845 39.4312 29.5483C39.2763 29.8285 38.895 30 38.4899 30C38.3648 30 38.2397 29.9833 38.1205 29.9498C35.7137 29.289 33.4022 28.5028 31.1861 27.5953C28.7197 28.1808 26.158 28.4735 23.6022 28.4735C19.706 28.4735 15.8277 27.8002 12.3366 26.4661C6.46257 24.2328 2.20894 20.3434 0.642129 15.789C0.606384 15.7304 0.576598 15.6677 0.564683 15.6008C-0.20383 12.0878 -0.185957 8.52454 0.606386 5.01152ZM29.8278 13.6937C29.8397 12.9326 29.8873 12.2258 29.9707 11.5483C30.1554 10.1012 30.5069 8.57891 31.0431 6.88513C31.1622 6.50037 31.7044 6.26199 32.2524 6.34563C32.8005 6.42927 33.1401 6.80985 33.021 7.19461C32.5027 8.82566 32.1631 10.2894 31.9903 11.6737C31.8235 12.9995 31.8056 14.459 31.9427 16.2532C32.5861 17.1649 33.1461 18.1059 33.6107 19.0762C39.7112 13.9655 39.5027 6.46691 32.8661 1.50686C32.735 1.40648 32.5086 1.39394 32.3239 1.46922C27.9809 3.28428 25.4252 6.57147 25.586 10.1012C27.1715 11.1935 28.5929 12.3974 29.8278 13.6937Z"/>
    </mask>
    <path d="M0.606386 5.01152C0.797025 4.1709 1.84554 3.54358 3.0549 3.54358H3.07873C10.5971 3.59794 17.8473 5.47992 23.6082 8.85075C23.7869 7.37026 24.3886 5.92741 25.3835 4.60585C26.7418 2.80333 28.7852 1.29775 31.2814 0.252205C32.2882 -0.170194 33.5452 -0.0530939 34.3316 0.536592C38.0729 3.33447 40.0865 6.98968 39.9971 10.8289C39.9137 14.526 37.8882 18.0055 34.278 20.6779C34.6176 21.5896 34.8737 22.5181 35.0465 23.4633C35.118 23.8522 34.7307 24.2077 34.1707 24.2621C34.129 24.2662 34.0814 24.2662 34.0397 24.2662C33.5393 24.2662 33.1044 24.0069 33.0388 23.6473C32.8541 22.6645 32.5801 21.7026 32.2107 20.7699C32.169 20.7072 32.1452 20.6445 32.1333 20.5776C28.4814 11.5901 16.6737 5.06589 3.04299 4.96551H3.03703C2.82256 4.96551 2.62001 5.0868 2.58426 5.23317C1.83362 8.558 1.80979 11.9288 2.51277 15.2578C2.52469 15.2829 2.5366 15.308 2.54256 15.3331C3.94257 19.5529 7.85066 23.158 13.2779 25.2198C18.0618 27.0432 23.632 27.52 28.8567 26.5957C27.0933 25.7802 25.4014 24.8852 23.7869 23.9108C19.5273 21.3387 15.9469 18.2983 13.1469 14.8814C12.8669 14.5427 13.0337 14.1077 13.5222 13.9112C14.0047 13.7146 14.6243 13.8317 14.9043 14.1747C18.9911 19.1305 24.8354 23.2709 31.7818 26.19C31.8116 26.1984 31.8354 26.2109 31.8652 26.2235C34.0933 27.1561 36.4286 27.9591 38.8593 28.6282C39.3776 28.7704 39.6397 29.1845 39.4312 29.5483C39.2763 29.8285 38.895 30 38.4899 30C38.3648 30 38.2397 29.9833 38.1205 29.9498C35.7137 29.289 33.4022 28.5028 31.1861 27.5953C28.7197 28.1808 26.158 28.4735 23.6022 28.4735C19.706 28.4735 15.8277 27.8002 12.3366 26.4661C6.46257 24.2328 2.20894 20.3434 0.642129 15.789C0.606384 15.7304 0.576598 15.6677 0.564683 15.6008C-0.20383 12.0878 -0.185957 8.52454 0.606386 5.01152ZM29.8278 13.6937C29.8397 12.9326 29.8873 12.2258 29.9707 11.5483C30.1554 10.1012 30.5069 8.57891 31.0431 6.88513C31.1622 6.50037 31.7044 6.26199 32.2524 6.34563C32.8005 6.42927 33.1401 6.80985 33.021 7.19461C32.5027 8.82566 32.1631 10.2894 31.9903 11.6737C31.8235 12.9995 31.8056 14.459 31.9427 16.2532C32.5861 17.1649 33.1461 18.1059 33.6107 19.0762C39.7112 13.9655 39.5027 6.46691 32.8661 1.50686C32.735 1.40648 32.5086 1.39394 32.3239 1.46922C27.9809 3.28428 25.4252 6.57147 25.586 10.1012C27.1715 11.1935 28.5929 12.3974 29.8278 13.6937Z" fill="#DB0165"/>
    <path d="M0.606386 5.01152L-8.17308 3.03136L-8.17073 3.021L0.606386 5.01152ZM3.07873 3.54358V-5.45642H3.11128L3.14382 -5.45619L3.07873 3.54358ZM23.6082 8.85075L32.5433 9.9294L30.8997 23.5447L19.0629 16.6187L23.6082 8.85075ZM25.3835 4.60585L18.1932 -0.807105L18.1958 -0.810511L25.3835 4.60585ZM31.2814 0.252205L34.7632 8.5514L34.7584 8.55343L31.2814 0.252205ZM34.3316 0.536592L28.9416 7.74408L28.9322 7.73704L34.3316 0.536592ZM39.9971 10.8289L30.9994 10.6259L30.9996 10.6195L39.9971 10.8289ZM34.278 20.6779L25.844 23.8192L23.4804 17.4732L28.9233 13.4442L34.278 20.6779ZM35.0465 23.4633L26.1948 25.0903L26.1932 25.0815L35.0465 23.4633ZM34.1707 24.2621L33.2727 15.307L33.2869 15.3056L33.3011 15.3042L34.1707 24.2621ZM33.0388 23.6473L41.884 21.9852L41.8886 22.0096L41.8931 22.034L33.0388 23.6473ZM32.2107 20.7699L39.7058 15.7875L40.2298 16.5759L40.5784 17.456L32.2107 20.7699ZM32.1333 20.5776L40.4712 17.1896L40.8279 18.0672L40.9939 18.9998L32.1333 20.5776ZM3.04299 4.96551V-4.03449H3.07612L3.10926 -4.03424L3.04299 4.96551ZM2.58426 5.23317L-6.19478 3.25114L-6.17747 3.17448L-6.15883 3.09813L2.58426 5.23317ZM2.51277 15.2578L-5.61726 19.1182L-6.07334 18.1577L-6.29303 17.1173L2.51277 15.2578ZM2.54256 15.3331L-5.99959 18.1671L-6.12329 17.7943L-6.21403 17.4121L2.54256 15.3331ZM13.2779 25.2198L16.4741 16.8064L16.4834 16.81L13.2779 25.2198ZM28.8567 26.5957L32.6345 18.427L58.6603 30.4631L30.4245 35.4581L28.8567 26.5957ZM23.7869 23.9108L19.1362 31.616L19.1348 31.6152L23.7869 23.9108ZM13.1469 14.8814L20.0839 9.14758L20.096 9.16222L20.1081 9.17692L13.1469 14.8814ZM13.5222 13.9112L16.9173 22.2462L16.8995 22.2535L16.8817 22.2606L13.5222 13.9112ZM14.9043 14.1747L7.96072 19.9006L7.94675 19.8837L7.93287 19.8667L14.9043 14.1747ZM31.7818 26.19L29.3487 34.8549L28.8104 34.7038L28.295 34.4872L31.7818 26.19ZM31.8652 26.2235L28.3902 34.5256L28.3809 34.5217L28.3716 34.5178L31.8652 26.2235ZM38.8593 28.6282L36.4781 37.3075L36.4705 37.3054L38.8593 28.6282ZM39.4312 29.5483L31.5545 25.1942L31.5881 25.1335L31.6225 25.0734L39.4312 29.5483ZM38.1205 29.9498L40.5033 21.271L40.5285 21.2779L40.5537 21.2849L38.1205 29.9498ZM31.1861 27.5953L29.1073 18.8386L31.9207 18.1707L34.5967 19.2665L31.1861 27.5953ZM12.3366 26.4661L15.535 18.0536L15.5422 18.0563L15.5494 18.059L12.3366 26.4661ZM0.642129 15.789L8.32377 11.0994L8.83403 11.9352L9.15259 12.8612L0.642129 15.789ZM0.564683 15.6008L9.35676 13.6774L9.39442 13.8496L9.42531 14.023L0.564683 15.6008ZM29.8278 13.6937L38.8267 13.8346L38.4824 35.8283L23.3111 19.9012L29.8278 13.6937ZM29.9707 11.5483L21.0382 10.4486L21.0406 10.4287L21.0431 10.4088L29.9707 11.5483ZM31.0431 6.88513L39.6403 9.54745L39.6319 9.57439L39.6234 9.60127L31.0431 6.88513ZM33.021 7.19461L41.6182 9.85693L41.6084 9.88862L41.5983 9.92024L33.021 7.19461ZM31.9903 11.6737L40.921 12.7883L40.9199 12.7973L31.9903 11.6737ZM31.9427 16.2532L24.5893 21.4425L23.1578 19.414L22.9688 16.9385L31.9427 16.2532ZM33.6107 19.0762L39.3903 25.9752L30.502 33.4213L25.4936 22.9636L33.6107 19.0762ZM32.8661 1.50686L27.4782 8.71592L27.4359 8.68432L27.394 8.65222L32.8661 1.50686ZM32.3239 1.46922L28.8535 -6.83475L28.89 -6.85004L28.9268 -6.86501L32.3239 1.46922ZM25.586 10.1012L20.48 17.5126L16.7989 14.9765L16.5954 10.5109L25.586 10.1012ZM0.606386 5.01152L-8.17073 3.021C-7.3812 -0.460448 -5.05592 -2.63226 -3.17705 -3.75799C-1.23007 -4.92454 0.956911 -5.45642 3.0549 -5.45642V3.54358V12.5436C3.94353 12.5436 5.00157 12.3254 6.07429 11.6826C7.07891 11.0807 8.78461 9.64287 9.38351 7.00203L0.606386 5.01152ZM3.0549 3.54358V-5.45642H3.07873V3.54358V12.5436H3.0549V3.54358ZM3.07873 3.54358L3.14382 -5.45619C12.045 -5.39182 20.8755 -3.17564 28.1534 1.08281L23.6082 8.85075L19.0629 16.6187C14.819 14.1355 9.14916 12.5877 3.01365 12.5433L3.07873 3.54358ZM23.6082 8.85075L14.673 7.77211C15.0608 4.56032 16.3459 1.64682 18.1932 -0.807104L25.3835 4.60585L32.5738 10.0188C32.4989 10.1182 32.4845 10.1613 32.4938 10.1391C32.4982 10.1285 32.5073 10.1045 32.5172 10.0675C32.5271 10.0304 32.5367 9.98389 32.5433 9.9294L23.6082 8.85075ZM25.3835 4.60585L18.1958 -0.810511C20.6932 -4.12469 24.1397 -6.51406 27.8043 -8.04902L31.2814 0.252205L34.7584 8.55343C33.4307 9.10955 32.7904 9.73135 32.5712 10.0222L25.3835 4.60585ZM31.2814 0.252205L27.7995 -8.04699C31.3574 -9.53969 36.0642 -9.41346 39.731 -6.66386L34.3316 0.536592L28.9322 7.73704C30.105 8.61652 31.2587 8.90191 32.0539 8.97602C32.8762 9.05268 33.8047 8.95353 34.7632 8.5514L31.2814 0.252205ZM34.3316 0.536592L39.7216 -6.67088C45.2207 -2.55847 49.1669 3.63997 48.9947 11.0383L39.9971 10.8289L30.9996 10.6195C31.0061 10.3394 30.9251 9.2274 28.9416 7.74407L34.3316 0.536592ZM39.9971 10.8289L48.9949 11.0319C48.8349 18.1229 44.9341 23.9874 39.6327 27.9117L34.278 20.6779L28.9233 13.4442C30.8423 12.0237 30.9926 10.929 30.9994 10.6259L39.9971 10.8289ZM34.278 20.6779L42.712 17.5366C43.2334 18.9365 43.631 20.3743 43.8998 21.845L35.0465 23.4633L26.1932 25.0815C26.1165 24.6619 26.0017 24.2428 25.844 23.8192L34.278 20.6779ZM35.0465 23.4633L43.8982 21.8363C44.6153 25.7374 42.8265 28.8865 40.9171 30.6316C39.0794 32.311 36.9055 33.0389 35.0404 33.2199L34.1707 24.2621L33.3011 15.3042C31.996 15.4309 30.2957 15.9538 28.7738 17.3447C27.1801 18.8012 25.5492 21.5781 26.1948 25.0903L35.0465 23.4633ZM34.1707 24.2621L35.0688 33.2171C34.732 33.2509 34.4589 33.2599 34.3157 33.2633C34.1711 33.2666 34.0447 33.2662 34.0397 33.2662V24.2662V15.2662C34.0764 15.2662 33.9946 15.2658 33.8948 15.2682C33.7962 15.2705 33.5678 15.2774 33.2727 15.307L34.1707 24.2621ZM34.0397 24.2662V33.2662C32.3076 33.2662 30.4157 32.831 28.6798 31.7691C26.9857 30.7329 24.8011 28.6442 24.1846 25.2605L33.0388 23.6473L41.8931 22.034C41.3421 19.01 39.4077 17.2308 38.0725 16.4141C36.6956 15.5718 35.2713 15.2662 34.0397 15.2662V24.2662ZM33.0388 23.6473L24.1936 25.3094C24.1109 24.8689 23.9927 24.4617 23.8431 24.0839L32.2107 20.7699L40.5784 17.456C41.1675 18.9434 41.5974 20.4601 41.884 21.9852L33.0388 23.6473ZM32.2107 20.7699L24.7157 25.7524C23.966 24.6246 23.4935 23.3956 23.2727 22.1553L32.1333 20.5776L40.9939 18.9998C40.7969 17.8933 40.3721 16.7898 39.7058 15.7875L32.2107 20.7699ZM32.1333 20.5776L23.7953 23.9656C22.0146 19.5831 14.5178 14.0503 2.97672 13.9653L3.04299 4.96551L3.10926 -4.03424C18.8296 -3.91848 34.9481 3.59705 40.4712 17.1896L32.1333 20.5776ZM3.04299 4.96551V13.9655H3.03703V4.96551V-4.03449H3.04299V4.96551ZM3.03703 4.96551V13.9655C4.55037 13.9655 6.0323 13.5584 7.33712 12.784C8.47562 12.1082 10.5711 10.465 11.3273 7.36822L2.58426 5.23317L-6.15883 3.09813C-5.36686 -0.145008 -3.15221 -1.92209 -1.84987 -2.69505C-0.381219 -3.56671 1.30922 -4.03449 3.03703 -4.03449V4.96551ZM2.58426 5.23317L11.3633 7.2152C10.8976 9.27814 10.8836 11.3386 11.3186 13.3983L2.51277 15.2578L-6.29303 17.1173C-7.26405 12.519 -7.23031 7.83786 -6.19478 3.25114L2.58426 5.23317ZM2.51277 15.2578L10.6428 11.3975C10.6433 11.3985 10.6507 11.414 10.6589 11.4315C10.6678 11.4504 10.6816 11.4798 10.6981 11.5156C10.73 11.585 10.7818 11.6997 10.8411 11.8424C10.9532 12.1121 11.1459 12.6088 11.2992 13.2542L2.54256 15.3331L-6.21403 17.4121C-6.06677 18.0324 -5.88293 18.504 -5.78132 18.7485C-5.68626 18.9773 -5.59378 19.1677 -5.61726 19.1182L2.51277 15.2578ZM2.54256 15.3331L11.0847 12.4991C11.3891 13.4165 12.7536 15.393 16.4741 16.8064L13.2779 25.2198L10.0817 33.6331C2.94775 30.9229 -3.50395 25.6894 -5.99959 18.1671L2.54256 15.3331ZM13.2779 25.2198L16.4834 16.81C19.6642 18.0224 23.5781 18.3898 27.2889 17.7333L28.8567 26.5957L30.4245 35.4581C23.6859 36.6502 16.4593 36.064 10.0724 33.6296L13.2779 25.2198ZM28.8567 26.5957L25.0789 34.7644C23.0293 33.8166 21.045 32.7681 19.1362 31.616L23.7869 23.9108L28.4376 16.2055C29.7577 17.0023 31.1572 17.7438 32.6345 18.427L28.8567 26.5957ZM23.7869 23.9108L19.1348 31.6152C14.1043 28.5776 9.71061 24.8875 6.18565 20.586L13.1469 14.8814L20.1081 9.17692C22.1831 11.7091 24.9503 14.0998 28.439 16.2063L23.7869 23.9108ZM13.1469 14.8814L6.2098 20.6153C4.11349 18.0791 3.34659 14.4808 4.64954 11.1035C5.82816 8.04851 8.21567 6.34512 10.1626 5.56173L13.5222 13.9112L16.8817 22.2606C18.3402 21.6738 20.4 20.2862 21.4431 17.5825C22.6105 14.5565 21.9002 11.345 20.0839 9.14758L13.1469 14.8814ZM13.5222 13.9112L10.127 5.57614C12.1227 4.76323 14.177 4.65805 15.9702 4.99899C17.6853 5.32507 20.0491 6.24545 21.8757 8.48264L14.9043 14.1747L7.93287 19.8667C9.47948 21.7609 11.3935 22.4513 12.6082 22.6822C13.901 22.928 15.4042 22.8626 16.9173 22.2462L13.5222 13.9112ZM14.9043 14.1747L21.8479 8.44869C24.8464 12.0848 29.4108 15.4312 35.2686 17.8929L31.7818 26.19L28.295 34.4872C20.26 31.1105 13.1359 26.1762 7.96072 19.9006L14.9043 14.1747ZM31.7818 26.19L34.2149 17.5252C34.7623 17.6789 35.1783 17.8512 35.3718 17.9342C35.452 17.9686 35.5312 18.0042 35.5088 17.9942C35.5081 17.9939 35.4901 17.9859 35.4663 17.9754C35.4412 17.9644 35.4042 17.9483 35.3588 17.9292L31.8652 26.2235L28.3716 34.5178C28.2714 34.4756 28.1911 34.4396 28.1788 34.4341C28.1426 34.418 28.2084 34.4475 28.2753 34.4762C28.4419 34.5477 28.8311 34.7096 29.3487 34.8549L31.7818 26.19ZM31.8652 26.2235L35.3402 17.9214C37.1997 18.6998 39.1712 19.3793 41.2481 19.9511L38.8593 28.6282L36.4705 37.3054C33.6861 36.5389 30.9869 35.6125 28.3902 34.5256L31.8652 26.2235ZM38.8593 28.6282L41.2404 19.9489C43.1619 20.4761 45.491 21.7418 47.0492 24.2342C48.7834 27.0082 49.1116 30.7571 47.2398 34.0232L39.4312 29.5483L31.6225 25.0734C29.9593 27.9757 30.2607 31.3356 31.7864 33.7761C33.136 35.935 35.0749 36.9226 36.4781 37.3075L38.8593 28.6282ZM39.4312 29.5483L47.3078 33.9024C44.9941 38.0879 40.7811 39 38.4899 39V30V21C37.4712 21 36.3443 21.2072 35.2183 21.7377C34.1279 22.2515 32.6092 23.2862 31.5545 25.1942L39.4312 29.5483ZM38.4899 30V39C37.5712 39 36.6258 38.8782 35.6874 38.6147L38.1205 29.9498L40.5537 21.2849C39.8536 21.0884 39.1585 21 38.4899 21V30ZM38.1205 29.9498L35.7378 38.6287C32.9915 37.8747 30.3362 36.9726 27.7754 35.924L31.1861 27.5953L34.5967 19.2665C36.4683 20.033 38.436 20.7034 40.5033 21.271L38.1205 29.9498ZM31.1861 27.5953L33.2648 36.3519C30.0983 37.1036 26.8382 37.4735 23.6022 37.4735V28.4735V19.4735C25.4777 19.4735 27.341 19.2579 29.1073 18.8386L31.1861 27.5953ZM23.6022 28.4735V37.4735C18.6988 37.4735 13.7224 36.6304 9.12389 34.8731L12.3366 26.4661L15.5494 18.059C17.933 18.9699 20.7132 19.4735 23.6022 19.4735V28.4735ZM12.3366 26.4661L9.13825 34.8786C1.57484 32.003 -5.18597 26.5138 -7.86834 18.7168L0.642129 15.789L9.15259 12.8612C9.60386 14.1729 11.3503 16.4626 15.535 18.0536L12.3366 26.4661ZM0.642129 15.789L-7.03951 20.4786C-7.36367 19.9476 -8.00855 18.7925 -8.29595 17.1785L0.564683 15.6008L9.42531 14.023C9.16175 12.5429 8.57644 11.5133 8.32377 11.0994L0.642129 15.789ZM0.564683 15.6008L-8.2274 17.5241C-9.27989 12.713 -9.2525 7.81722 -8.17308 3.03136L0.606386 5.01152L9.38585 6.99168C8.88059 9.23186 8.87223 11.4625 9.35676 13.6774L0.564683 15.6008ZM29.8278 13.6937L20.8289 13.5528C20.8453 12.4998 20.9122 11.4715 21.0382 10.4486L29.9707 11.5483L38.9033 12.6479C38.8624 12.98 38.834 13.3653 38.8267 13.8346L29.8278 13.6937ZM29.9707 11.5483L21.0431 10.4088C21.3098 8.31942 21.8001 6.2621 22.4627 4.16899L31.0431 6.88513L39.6234 9.60127C39.2137 10.8957 39.001 11.883 38.8983 12.6877L29.9707 11.5483ZM31.0431 6.88513L22.4459 4.22282C23.5101 0.786065 26.0854 -1.00901 27.8338 -1.78555C29.6928 -2.61117 31.7114 -2.84114 33.6102 -2.55136L32.2524 6.34563L30.8947 15.2426C32.2454 15.4488 33.7188 15.2962 35.14 14.665C36.4506 14.0829 38.6952 12.5994 39.6403 9.54745L31.0431 6.88513ZM32.2524 6.34563L33.6102 -2.55136C35.5276 -2.25875 37.788 -1.34816 39.5725 0.632064C41.4783 2.74669 42.7637 6.15785 41.6182 9.85693L33.021 7.19461L24.4237 4.5323C23.3974 7.84661 24.5726 10.8751 26.2013 12.6823C27.7089 14.3552 29.5254 15.0337 30.8947 15.2426L32.2524 6.34563ZM33.021 7.19461L41.5983 9.92024C41.2056 11.156 41.0105 12.071 40.921 12.7883L31.9903 11.6737L23.0596 10.5591C23.3156 8.50779 23.7997 6.49527 24.4436 4.46898L33.021 7.19461ZM31.9903 11.6737L40.9199 12.7973C40.8477 13.3711 40.8122 14.2018 40.9165 15.5679L31.9427 16.2532L22.9688 16.9385C22.7991 14.7163 22.7993 12.6279 23.0607 10.5502L31.9903 11.6737ZM31.9427 16.2532L39.296 11.0639C40.2024 12.3483 41.0257 13.7226 41.7279 15.1887L33.6107 19.0762L25.4936 22.9636C25.2664 22.4892 24.9698 21.9815 24.5893 21.4425L31.9427 16.2532ZM33.6107 19.0762L27.8311 12.1772C28.5081 11.6101 28.8014 11.153 28.9194 10.9121C29.0299 10.6868 29.0217 10.588 29.0213 10.577C29.0208 10.5641 29.0185 10.4239 28.8523 10.137C28.6778 9.83566 28.288 9.32115 27.4782 8.71592L32.8661 1.50686L38.254 -5.70221C43.2879 -1.93996 46.7658 3.51578 47.0083 9.89308C47.2517 16.2938 44.1704 21.9707 39.3903 25.9752L33.6107 19.0762ZM32.8661 1.50686L27.394 8.65222C29.1032 9.96117 30.87 10.3274 32.0286 10.403C33.2551 10.4831 34.5176 10.294 35.7211 9.80344L32.3239 1.46922L28.9268 -6.86501C31.147 -7.76999 34.969 -8.21871 38.3382 -5.63851L32.8661 1.50686ZM32.3239 1.46922L35.7944 9.77318C34.7888 10.1934 34.4143 10.6111 34.3635 10.6763C34.3453 10.6996 34.4106 10.6223 34.476 10.4309C34.5443 10.2311 34.5895 9.97285 34.5767 9.69152L25.586 10.1012L16.5954 10.5109C16.2021 1.88037 22.4311 -4.15068 28.8535 -6.83475L32.3239 1.46922ZM25.586 10.1012L30.692 2.68982C32.7499 4.10757 34.6513 5.70879 36.3445 7.48624L29.8278 13.6937L23.3111 19.9012C22.5345 19.0859 21.5932 18.2795 20.48 17.5126L25.586 10.1012Z" fill="#FF4F9D" mask="url(#path-1-inside-1_228_2033)"/>
</svg>
