<svg width="26" height="21" viewBox="0 0 26 21" fill="none" xmlns="http://www.w3.org/2000/svg">
    <g clip-path="url(#clip0_1027_1721)">
        <path d="M21.5246 1.60534C20.152 0.520683 17.6707 0.0556641 14.4964 0.0556641H5.28371C4.96963 0.0556305 4.66584 0.133295 4.42698 0.274689C4.18812 0.416082 4.02988 0.611923 3.98071 0.826984L0.14472 17.6935C0.0684731 18.0261 0.439956 18.3273 0.926203 18.3273H6.6138L8.0422 12.0462L7.99787 12.2429C8.09963 11.7989 8.64735 11.4714 9.29594 11.4714H11.9987C17.3082 11.4714 21.4656 9.97629 22.6801 5.65125C22.7161 5.52334 22.7473 5.39884 22.7743 5.2772C22.621 5.22093 22.621 5.22093 22.7743 5.2772C23.136 3.67863 22.7719 2.59049 21.5246 1.60534Z" fill="#27346A"/>
        <path d="M10.2185 4.70134C10.3739 4.64993 10.544 4.62333 10.7163 4.62349H17.9388C18.7941 4.62349 19.5919 4.66207 20.3208 4.74341C20.5248 4.76598 20.7277 4.7929 20.9293 4.82414C21.215 4.86785 21.4975 4.92135 21.7755 4.98443C22.1339 5.0674 22.4677 5.16404 22.7744 5.2772C23.136 3.67802 22.7719 2.59049 21.5246 1.60534C20.1512 0.520683 17.6707 0.0556641 14.4964 0.0556641H5.28292C4.63423 0.0556641 4.08238 0.383069 3.98071 0.826985L0.144721 17.6929C0.0684736 18.0261 0.439956 18.3268 0.925415 18.3268H6.6138L9.57729 5.29824C9.60645 5.17018 9.68004 5.04896 9.79173 4.94498C9.90343 4.84101 10.0499 4.7574 10.2185 4.70134Z" fill="#27346A"/>
        <path d="M22.6802 5.65139C21.4657 9.97581 17.3084 11.4715 11.9988 11.4715H9.29526C8.64666 11.4715 8.09885 11.799 7.99807 12.243L6.22104 20.0528C6.15465 20.3439 6.47934 20.6077 6.90411 20.6077H11.6986C11.9733 20.6076 12.2389 20.5396 12.4477 20.4159C12.6565 20.2923 12.7948 20.121 12.8377 19.9329L12.8844 19.7635L13.788 15.7932L13.8462 15.5737C13.8892 15.3857 14.0274 15.2144 14.2362 15.0907C14.445 14.967 14.7106 14.899 14.9852 14.899H15.7028C20.3472 14.899 23.9839 13.5909 25.0467 9.8076C25.4903 8.22658 25.2607 6.90658 24.0873 5.97941C23.7314 5.69859 23.2893 5.46666 22.7744 5.27734C22.7466 5.39959 22.7163 5.52348 22.6802 5.65139Z" fill="#2790C3"/>
        <path d="M21.5037 4.92601C21.3144 4.88768 21.1232 4.85374 20.9306 4.82425C20.7289 4.79351 20.526 4.76678 20.3221 4.74408C19.5923 4.66219 18.7952 4.62354 17.9391 4.62354H10.7174C10.5451 4.62334 10.3749 4.65016 10.2196 4.70201C10.0508 4.75786 9.90417 4.84141 9.79242 4.94542C9.68067 5.04943 9.60719 5.17076 9.57834 5.2989L8.04335 12.0463L7.99902 12.243C8.1 11.799 8.64771 11.4715 9.29641 11.4715H11.9999C17.3094 11.4715 21.4668 9.97641 22.6812 5.65137C22.7174 5.52346 22.7477 5.3995 22.7756 5.27732C22.4681 5.16486 22.1351 5.06745 21.7767 4.98509C21.6862 4.9643 21.5953 4.9446 21.5038 4.92601" fill="#1F264F"/>
    </g>
    <defs>
        <clipPath id="clip0_1027_1721">
            <rect width="25.2187" height="20.625" fill="white" transform="translate(0.131348)"/>
        </clipPath>
    </defs>
</svg>
