<svg width="40" height="30" viewBox="0 0 40 30" fill="none" xmlns="http://www.w3.org/2000/svg">
    <path d="M2.38095 5.625H9.52381C11.359 5.625 11.4267 3.94031 11.4286 3.75V2.8125C11.4286 1.63312 12.7524 0 15.2381 0H24.7324C27.5276 0 28.5419 1.68188 28.5419 2.8125V3.74437C28.5429 3.82125 28.5876 5.625 30.4762 5.625H37.619C38.2503 5.62574 38.8554 5.87291 39.3018 6.31229C39.7482 6.75167 39.9992 7.34738 40 7.96875V24.8438C40 26.1356 38.9324 27.1875 37.619 27.1875H31.9048C31.7785 27.1875 31.6573 27.1381 31.568 27.0502C31.4787 26.9623 31.4286 26.8431 31.4286 26.7188C31.4286 26.5944 31.4787 26.4752 31.568 26.3873C31.6573 26.2994 31.7785 26.25 31.9048 26.25H37.619C38.4067 26.25 39.0476 25.6191 39.0476 24.8438V13.125H31.4286C32.0597 14.6096 32.3835 16.2032 32.381 17.8125C32.381 24.5325 26.8267 30 20 30C13.1733 30 7.61905 24.5325 7.61905 17.8125C7.61905 16.1522 7.96095 14.5687 8.57428 13.125H0.952381V24.8438C0.952381 25.6191 1.59333 26.25 2.38095 26.25H9.04762C9.17391 26.25 9.29503 26.2994 9.38434 26.3873C9.47364 26.4752 9.52381 26.5944 9.52381 26.7188C9.52381 26.8431 9.47364 26.9623 9.38434 27.0502C9.29503 27.1381 9.17391 27.1875 9.04762 27.1875H2.38095C1.06762 27.1875 -1.19209e-07 26.1356 -1.19209e-07 24.8438V7.96875C-1.19209e-07 6.67687 1.06762 5.625 2.38095 5.625ZM20 29.0625C26.3019 29.0625 31.4286 24.0159 31.4286 17.8125C31.4286 11.6091 26.3019 6.5625 20 6.5625C13.6981 6.5625 8.57143 11.6091 8.57143 17.8125C8.57143 24.0159 13.6981 29.0625 20 29.0625ZM8.80952 12.1875C8.87736 12.1883 8.94425 12.2033 9.00572 12.2316C11.0667 8.31375 15.2171 5.625 20 5.625C24.7829 5.625 28.9333 8.31375 30.9943 12.2316C31.0557 12.2033 31.1226 12.1883 31.1905 12.1875H39.0476V7.96875C39.0476 7.19344 38.4067 6.5625 37.619 6.5625H30.4762C28.221 6.5625 27.601 4.72688 27.5895 3.75V2.8125C27.5895 2.05875 26.8286 0.9375 24.7324 0.9375H15.2381C13.2438 0.9375 12.381 2.17875 12.381 2.8125V3.75C12.381 4.72312 11.7838 6.5625 9.52381 6.5625H2.38095C1.59333 6.5625 0.952381 7.19344 0.952381 7.96875V12.1875H8.80952Z" fill="#DB0165"/>
    <path d="M30.9523 4.6875C30.8261 4.6875 30.7049 4.63811 30.6156 4.55021C30.5263 4.4623 30.4762 4.34307 30.4762 4.21875V3.28125C30.4762 2.50594 31.1171 1.875 31.9047 1.875H35.7143C36.5019 1.875 37.1428 2.50594 37.1428 3.28125V4.21875C37.1428 4.34307 37.0927 4.4623 37.0033 4.55021C36.914 4.63811 36.7929 4.6875 36.6666 4.6875C36.5403 4.6875 36.4192 4.63811 36.3299 4.55021C36.2406 4.4623 36.1904 4.34307 36.1904 4.21875V3.28125C36.1904 3.15693 36.1403 3.0377 36.051 2.94979C35.9617 2.86189 35.8405 2.8125 35.7143 2.8125H31.9047C31.7784 2.8125 31.6573 2.86189 31.568 2.94979C31.4787 3.0377 31.4285 3.15693 31.4285 3.28125V4.21875C31.4285 4.34307 31.3784 4.4623 31.2891 4.55021C31.1998 4.63811 31.0786 4.6875 30.9523 4.6875ZM20 9.375C24.7266 9.375 28.5714 13.1606 28.5714 17.8125C28.5714 22.4644 24.7266 26.25 20 26.25C15.2733 26.25 11.4285 22.4644 11.4285 17.8125C11.4285 13.1606 15.2733 9.375 20 9.375ZM20 25.3125C24.2009 25.3125 27.619 21.9478 27.619 17.8125C27.619 13.6772 24.2009 10.3125 20 10.3125C15.799 10.3125 12.3809 13.6772 12.3809 17.8125C12.3809 21.9478 15.799 25.3125 20 25.3125Z" fill="#DB0165"/>
</svg>
