<svg width="140" height="152" viewBox="0 0 140 152" fill="none" xmlns="http://www.w3.org/2000/svg">
    <path d="M124.939 89.3531C116.916 85.6143 110.047 89.3531 110.047 89.3531L72.8152 85.9072L35.5838 89.3531C35.5838 89.3531 28.7146 85.6143 20.6913 89.3531C5.81731 96.2829 13.245 113.475 13.245 113.475H132.386C132.386 113.475 139.813 96.2829 124.939 89.3531Z" fill="white"/>
    <path d="M95.3625 113.475C90.8538 109.36 82.4581 106.583 72.8152 106.583C63.1722 106.583 54.7765 109.36 50.2678 113.475H95.3625Z" fill="white"/>
    <path d="M56.5828 87.7579C63.076 92.1273 67.1826 94.5222 72.8157 94.5222C78.4451 94.5222 82.5517 92.1239 89.0449 87.7579V73.123H56.5791V87.7579H56.5828Z" fill="white"/>
    <path d="M119.18 82.4611C111.909 81.5445 105.799 84.3461 105.799 84.3461C105.799 84.3461 102.653 82.2992 98.9299 82.2303C93.4606 82.1269 89.838 85.4522 87.7084 88.2778C85.0314 91.8306 76.539 92.7989 72.8158 92.7989C69.0927 92.7989 60.6002 91.8306 57.9232 88.2778C55.7936 85.4522 52.171 82.1303 46.7017 82.2303C42.9786 82.2992 39.8325 84.3461 39.8325 84.3461C39.8325 84.3461 33.7228 81.5445 26.4515 82.4611C21.5928 83.0711 17.6761 85.0938 15.8555 86.7616C26.392 80.9553 33.5665 85.9725 38.4363 88.9774C43.3062 91.9822 46.7538 99.6907 46.7538 99.6907C54.2001 96.2448 72.8158 96.2448 72.8158 96.2448C72.8158 96.2448 91.4315 96.2448 98.8778 99.6907C98.8778 99.6907 102.325 91.9822 107.195 88.9774C112.065 85.9725 119.236 80.9553 129.776 86.7616C127.956 85.0938 124.039 83.0711 119.18 82.4611Z" fill="white"/>
    <path d="M56.5526 77.2929C57.9227 84.2778 66.6944 84.9394 72.8003 84.9394C78.9026 84.9394 87.7078 84.2812 89.0444 77.2929V66.8896H56.5488V77.2929H56.5526Z" fill="white"/>
    <path d="M48.4066 44.3353C48.4066 49.325 45.6738 53.3705 42.3044 53.3705C38.9349 53.3705 36.2021 49.325 36.2021 44.3353C36.2021 39.3456 38.9349 35.2966 42.3044 35.2966C45.6738 35.2932 48.4066 39.3421 48.4066 44.3353ZM109.425 44.3353C109.425 49.325 106.696 53.3705 103.323 53.3705C99.9535 53.3705 97.2207 49.325 97.2207 44.3353C97.2207 39.3456 99.9498 35.2966 103.323 35.2966C106.696 35.2932 109.425 39.3421 109.425 44.3353Z" fill="white"/>
    <path d="M72.8154 13.5431C54.1997 13.5431 43.0303 20.4349 43.0303 30.7727C43.0303 41.1105 43.0303 61.786 50.4766 72.1238C57.9228 82.4615 65.3691 82.4615 72.8154 82.4615C80.2617 82.4615 87.708 82.4615 95.1543 72.1238C102.601 61.786 102.601 41.1105 102.601 30.7727C102.601 20.4349 91.4311 13.5431 72.8154 13.5431Z" fill="white"/>
    <path d="M75.8723 0.165859C98.226 1.85436 106.983 14.7972 106.983 27.2198C106.983 39.6389 104.354 44.6114 101.726 39.6389C99.0972 34.6733 96.6772 28.033 96.6772 28.033C96.6772 28.033 80.6975 29.7043 75.4404 24.7353C75.4404 24.7353 83.326 39.6423 67.5548 24.7353C67.5548 24.7353 70.1833 34.6733 54.4121 22.2542C54.4121 22.2542 46.5265 27.2232 43.8979 39.6423C43.1682 43.0917 38.6409 39.6423 38.6409 27.2232C38.6446 17.9985 39.3073 4.30097 56.914 5.9619C60.7414 0.314034 68.1505 -0.416501 75.8723 0.165859Z" fill="white"/>
    <path d="M98.8772 30.7729C87.7077 30.7729 80.2614 34.2189 72.8152 34.2189C65.3689 34.2189 57.9226 30.7729 46.7532 30.7729C35.5837 30.7729 43.03 50.4836 46.7532 53.9295C50.4763 57.3755 65.3689 50.4836 72.8152 50.4836C80.2614 50.4836 95.154 57.3755 98.8772 53.9295C102.6 50.4836 110.047 30.7729 98.8772 30.7729Z" fill="white"/>
    <path d="M57.9228 48.0019C55.8751 48.0019 54.1997 46.4513 54.1997 44.556V41.1101C54.1997 39.2148 55.8751 37.6642 57.9228 37.6642C59.9706 37.6642 61.646 39.2148 61.646 41.1101V44.556C61.646 46.4513 59.9706 48.0019 57.9228 48.0019ZM87.708 48.0019C85.6603 48.0019 83.9848 46.4513 83.9848 44.556V41.1101C83.9848 39.2148 85.6603 37.6642 87.708 37.6642C89.7557 37.6642 91.4311 39.2148 91.4311 41.1101V44.556C91.4311 46.4513 89.7557 48.0019 87.708 48.0019Z" fill="white"/>
    <path d="M75.6079 57.4782H70.0232C68.4855 57.4782 67.2308 56.3169 67.2308 54.8938C67.2308 53.4706 68.4855 52.3093 70.0232 52.3093H75.6079C77.1455 52.3093 78.4002 53.4706 78.4002 54.8938C78.4002 56.3169 77.1455 57.4782 75.6079 57.4782ZM72.8155 69.5389C65.1533 69.5389 59.4345 67.8022 59.1963 67.7298C58.2208 67.4266 57.6958 66.4548 58.0197 65.552C58.3399 64.6492 59.3824 64.1495 60.3728 64.4596C60.4249 64.4734 65.7899 66.093 72.8155 66.093C79.8411 66.093 85.2061 64.4734 85.262 64.4562C86.2188 64.1564 87.2874 64.6457 87.615 65.5486C87.9389 66.4514 87.4102 67.4231 86.4385 67.7264C86.1965 67.8022 80.4777 69.5389 72.8155 69.5389Z" fill="white"/>
    <path d="M0 111.954C0 95.3857 13.4315 81.9542 30 81.9542H110C126.569 81.9542 140 95.3857 140 111.954V152H0V111.954Z" fill="white"/>
</svg>
