<svg width="21" height="24" viewBox="0 0 21 24" fill="none" xmlns="http://www.w3.org/2000/svg">
    <path d="M18.0512 24H2.71869C1.21872 23.9953 0.00468739 22.7813 0 21.2813V20.0814C0 17.1471 1.23278 14.3487 3.40305 12.3753C4.30771 11.555 5.653 11.4425 6.67954 12.1034C7.75295 12.7925 9.03261 13.1581 10.3873 13.1581C11.7419 13.1581 13.0216 12.7925 14.095 12.1034C15.1215 11.4425 16.4668 11.555 17.3715 12.3753C19.5417 14.3487 20.7792 17.1471 20.7745 20.0814V21.2813C20.7698 22.786 19.5511 24 18.0512 24ZM5.21707 12.6097C4.77645 12.6097 4.35459 12.7737 4.03116 13.069C2.05777 14.8643 0.932791 17.4142 0.932791 20.0814V21.2813C0.937479 22.2657 1.72965 23.0579 2.714 23.0625H18.0465C19.0308 23.0625 19.8277 22.2657 19.8277 21.2813V20.0814C19.8277 17.4142 18.7027 14.869 16.7293 13.069C16.1387 12.5347 15.2622 12.4597 14.5919 12.8909C13.3684 13.6784 11.9107 14.0956 10.3779 14.0956C8.84511 14.0956 7.38733 13.6784 6.16392 12.8909C5.88737 12.7081 5.55456 12.6097 5.21707 12.6097Z" fill="#530B6B"/>
    <path d="M10.3866 12.0935C7.04916 12.0888 4.34453 9.38416 4.33984 6.04674C4.33984 2.714 7.04916 0 10.3866 0C13.724 0.00468739 16.4286 2.70931 16.4333 6.04674C16.4286 9.37947 13.7193 12.0935 10.3866 12.0935ZM10.3866 0.942166C7.56477 0.942166 5.27732 3.22961 5.27732 6.05143C5.27732 8.87324 7.56477 11.1607 10.3866 11.1607C13.2084 11.1607 15.4958 8.87324 15.4958 6.05143C15.4912 3.22961 13.2084 0.942166 10.3866 0.942166Z" fill="#530B6B"/>
</svg>
