<svg width="40" height="30" viewBox="0 0 40 30" fill="none" xmlns="http://www.w3.org/2000/svg">
    <path d="M22.0417 13L32.4584 9.625C33.1251 9.39583 33.5345 9.02583 33.6867 8.515C33.839 8.00417 33.6517 7.55125 33.1251 7.15625L32.4584 6.65625C32.2362 6.48958 31.9651 6.36458 31.6451 6.28125C31.3251 6.19792 30.999 6.17708 30.6667 6.21875L15.6667 8.21875L10.5001 4.3125C9.86119 3.83333 9.07619 3.59375 8.14507 3.59375C7.21396 3.59375 6.42952 3.83333 5.79174 4.3125C5.15396 4.79167 4.83452 5.38042 4.83341 6.07875C4.8323 6.77708 5.15174 7.36542 5.79174 7.84375L10.9584 11.75L8.33341 22.9688C8.27785 23.2188 8.29897 23.4688 8.39674 23.7188C8.49452 23.9688 8.65397 24.1771 8.87508 24.3438L9.54174 24.8125C10.0695 25.2083 10.6806 25.3542 11.3751 25.25C12.0695 25.1458 12.5695 24.8438 12.8751 24.3438L17.3334 16.5313L21.5834 19.6875L20.6667 23.5625C20.6112 23.7708 20.6251 23.9742 20.7084 24.1725C20.7917 24.3708 20.9306 24.5425 21.1251 24.6875L21.8334 25.2187C22.2223 25.5104 22.7012 25.625 23.2701 25.5625C23.839 25.5 24.2629 25.2812 24.5417 24.9062L27.5834 20.6875L33.2084 18.4063C33.7084 18.1979 34.0001 17.8804 34.0834 17.4538C34.1667 17.0271 34.014 16.6675 33.6251 16.375L32.9167 15.8438C32.7223 15.6979 32.4929 15.5938 32.2284 15.5313C31.964 15.4688 31.6934 15.4583 31.4167 15.5L26.2917 16.1563L22.0417 13Z" fill="#DB0165"/>
</svg>
